<svg
        xmlns="http://www.w3.org/2000/svg"

        width="1920"
        height="1080."
        viewBox="0 0 1920 1080"
      
      >
        <path
          id="Subtraction_1"
          data-name="Subtraction 1"
          d="M1920,1080H0V0H1920V1080ZM1164.262,585.585l-3.575,7.93a24.589,24.589,0,0,0,8.092,3.8,37.416,37.416,0,0,0,10.433,1.463,26.758,26.758,0,0,0,10.595-1.885,14.7,14.7,0,0,0,6.533-5.1,12.478,12.478,0,0,0,2.177-7.117,10.507,10.507,0,0,0-2.372-7.215,14.164,14.164,0,0,0-5.687-3.9,74.538,74.538,0,0,0-8.516-2.471,38.488,38.488,0,0,1-7.442-2.242,3.7,3.7,0,0,1-2.437-3.478,4.382,4.382,0,0,1,2.112-3.77c1.4-.949,3.6-1.43,6.532-1.43a25.482,25.482,0,0,1,12.61,3.575l3.25-7.995a25.274,25.274,0,0,0-7.281-2.99,35.087,35.087,0,0,0-8.515-1.04,26.507,26.507,0,0,0-10.562,1.885,14.494,14.494,0,0,0-6.467,5.1,12.72,12.72,0,0,0-2.145,7.183,10.761,10.761,0,0,0,2.372,7.28,13.9,13.9,0,0,0,5.687,3.965,74.577,74.577,0,0,0,8.516,2.47c2.235.515,4.039,1,5.362,1.429a9.685,9.685,0,0,1,3.25,1.723,3.4,3.4,0,0,1,1.267,2.7,4.041,4.041,0,0,1-2.145,3.542c-1.423.884-3.653,1.332-6.63,1.332a26.234,26.234,0,0,1-8.059-1.3,24.383,24.383,0,0,1-6.956-3.445Zm-51.61-33.085v25.48a26.728,26.728,0,0,0,1.357,8.856,17.181,17.181,0,0,0,4.071,6.549,17.4,17.4,0,0,0,6.508,4.046,28.534,28.534,0,0,0,17.339,0,17.406,17.406,0,0,0,6.508-4.046,17.171,17.171,0,0,0,4.07-6.549,26.723,26.723,0,0,0,1.357-8.856V552.5h-10.4v25.09c0,4.184-.875,7.3-2.6,9.262s-4.262,2.957-7.54,2.957c-3.364,0-5.923-1.028-7.6-3.055s-2.535-5.11-2.535-9.165V552.5h-10.531Zm-209.3-.78a26.683,26.683,0,0,0-12.773,3.055,22.776,22.776,0,0,0-8.9,8.417,24.2,24.2,0,0,0,0,24.115,22.778,22.778,0,0,0,8.9,8.418,28.161,28.161,0,0,0,25.512,0,23.205,23.205,0,0,0,0-40.95A26.485,26.485,0,0,0,903.352,551.72Zm398.515.78V598h20.67a29.189,29.189,0,0,0,13.1-2.827,21.27,21.27,0,0,0,8.84-7.962,24.263,24.263,0,0,0,0-23.92,21.258,21.258,0,0,0-8.84-7.962,29.18,29.18,0,0,0-13.1-2.828Zm-43.615,0V598h35.23V589.55h-24.765V579.02h21.125v-8.19h-21.125v-9.88h23.92V552.5Zm-41.99,26.845h20.67V598h10.53V552.5h-10.53v17.94h-20.67V552.5h-10.53V598h10.53V579.346ZM1066.307,552.5V598h10.531V585.456H1086a25.762,25.762,0,0,0,10.5-1.983,15.389,15.389,0,0,0,6.858-5.72,17.154,17.154,0,0,0,0-17.518,15.665,15.665,0,0,0-6.858-5.719A25.386,25.386,0,0,0,1086,552.5Zm-62.01,0V598h35.229V589.55h-24.764V579.02h21.125v-8.19h-21.124v-9.88h23.92V552.5H1004.3Zm-49.725,0h0V598H978.1c5.909,0,10.469-1.083,13.552-3.217a10.539,10.539,0,0,0,3.485-3.908,11.624,11.624,0,0,0,1.162-5.289,11.427,11.427,0,0,0-2.211-7.117,12.044,12.044,0,0,0-6.11-4.127,10.932,10.932,0,0,0,6.045-10.011,10.081,10.081,0,0,0-4.452-8.645c-2.954-2.113-7.251-3.185-12.773-3.185h-22.23Zm-117.91,0v8.58h14.56V598h10.53V561.08h14.56V552.5h-39.65Zm-58.565,0v8.58h14.56V598h10.53V561.08h14.559V552.5H778.1Zm-36.985,17.875,0,0L763.8,598h8.645V552.5h-10.4v27.625L739.423,552.5h-8.71V598h10.4V570.375ZM689.763,588.25h21.125l4.03,9.75h11.05l-20.345-45.5h-10.4L674.942,598h10.79l4.03-9.749ZM637.307,552.5V598h35.23V589.55H647.772V579.02H668.9v-8.19H647.772v-9.88h23.92V552.5Zm-20.734,18.2v0l.065,27.3h9.879l-.13-45.5h-8.644l-16.771,28.275L583.942,552.5h-8.71V598h9.88V571.285l13.326,21.905h4.745L616.571,570.7Zm460.232-54.115-3.575,7.93a24.573,24.573,0,0,0,8.092,3.8,37.384,37.384,0,0,0,10.433,1.462,26.758,26.758,0,0,0,10.594-1.885,14.692,14.692,0,0,0,6.533-5.1,12.482,12.482,0,0,0,2.177-7.118,10.5,10.5,0,0,0-2.372-7.214,14.157,14.157,0,0,0-5.687-3.9,74.586,74.586,0,0,0-8.516-2.47,38.472,38.472,0,0,1-7.442-2.243,3.7,3.7,0,0,1-2.437-3.478,4.384,4.384,0,0,1,2.112-3.77c1.4-.949,3.6-1.43,6.532-1.43a25.485,25.485,0,0,1,12.609,3.576l3.25-8a25.266,25.266,0,0,0-7.28-2.99,35.146,35.146,0,0,0-8.515-1.04,26.519,26.519,0,0,0-10.562,1.885,14.491,14.491,0,0,0-6.467,5.1,12.722,12.722,0,0,0-2.145,7.183,10.757,10.757,0,0,0,2.373,7.28,13.884,13.884,0,0,0,5.687,3.965,74.573,74.573,0,0,0,8.515,2.47c2.248.519,4.052,1,5.364,1.43a9.642,9.642,0,0,1,3.25,1.723,3.4,3.4,0,0,1,1.267,2.7A4.04,4.04,0,0,1,1098.45,520c-1.424.885-3.655,1.333-6.63,1.333a26.241,26.241,0,0,1-8.059-1.3,24.389,24.389,0,0,1-6.955-3.445ZM757.135,483.5h0v25.48a26.715,26.715,0,0,0,1.357,8.857,17.165,17.165,0,0,0,4.071,6.549,17.405,17.405,0,0,0,6.508,4.046,28.541,28.541,0,0,0,17.339,0,17.4,17.4,0,0,0,6.507-4.046,17.16,17.16,0,0,0,4.071-6.549,26.715,26.715,0,0,0,1.357-8.857V483.5h-10.4v25.09c0,4.183-.874,7.3-2.6,9.263s-4.263,2.957-7.54,2.957c-3.364,0-5.923-1.028-7.605-3.055s-2.535-5.11-2.535-9.165V483.5h-10.53ZM724.7,482.72a26.677,26.677,0,0,0-12.772,3.055,22.777,22.777,0,0,0-8.905,8.418,24.2,24.2,0,0,0,0,24.115,22.777,22.777,0,0,0,8.905,8.418,28.163,28.163,0,0,0,25.513,0,23.207,23.207,0,0,0,0-40.95A26.491,26.491,0,0,0,724.7,482.72Zm509.535.779V529h35.23v-8.45H1244.7V510.02h21.125v-8.19H1244.7v-9.88h23.921V483.5Zm-37.245,32.825h9.685L1215.45,529h11.311l-10.205-14.625a14.822,14.822,0,0,0,9.36-14.365,15.83,15.83,0,0,0-2.4-8.775,15.67,15.67,0,0,0-6.858-5.72,25.387,25.387,0,0,0-10.5-2.015h-19.7V529h10.53V516.326Zm-51.48,2.925h21.125l4.03,9.751h11.05l-20.345-45.5h-10.4L1130.69,529h10.79l4.03-9.75ZM1033.19,483.5V529h35.23v-8.45h-24.764V510.02h21.125v-8.19h-21.125v-9.88h23.919V483.5H1033.19Zm-21.32,0h0V529h10.53V483.5h-10.53Zm-37.245,32.825h9.685L993.085,529h11.31l-10.2-14.625a14.823,14.823,0,0,0,9.36-14.365,15.825,15.825,0,0,0-2.406-8.775,15.659,15.659,0,0,0-6.857-5.72,25.385,25.385,0,0,0-10.5-2.015H964.1V529h10.53V516.326Zm-51.48,2.925H944.27L948.3,529H959.35l-20.345-45.5H928.6L908.325,529h10.79l4.03-9.75ZM861.265,483.5h0V529h20.671a29.174,29.174,0,0,0,13.1-2.828,21.259,21.259,0,0,0,8.84-7.962,24.262,24.262,0,0,0,0-23.92,21.259,21.259,0,0,0-8.84-7.962,29.175,29.175,0,0,0-13.1-2.828H861.265Zm-42.12,17.875,0,0L841.831,529h8.644V483.5h-10.4v27.625L817.455,483.5h-8.709V529h10.4V501.375ZM652.94,483.5h0V529h23.53c5.909,0,10.468-1.083,13.553-3.218a10.546,10.546,0,0,0,3.486-3.908,11.627,11.627,0,0,0,1.162-5.289,11.431,11.431,0,0,0-2.21-7.117,12.048,12.048,0,0,0-6.11-4.127,10.935,10.935,0,0,0,6.046-10.01,10.082,10.082,0,0,0-4.452-8.645c-2.955-2.114-7.253-3.185-12.773-3.185H652.94ZM977.323,590.07H965.037V578.825h12.285c2.782,0,4.9.475,6.289,1.414a4.793,4.793,0,0,1,2.1,4.241,4.694,4.694,0,0,1-2.113,4.226A11.722,11.722,0,0,1,977.323,590.07Zm-73.971-.26a14.5,14.5,0,0,1-7.28-1.852,13.351,13.351,0,0,1-5.1-5.168,16.265,16.265,0,0,1,0-15.079,13.35,13.35,0,0,1,5.1-5.168,15.234,15.234,0,0,1,14.56,0,13.347,13.347,0,0,1,5.1,5.168,16.265,16.265,0,0,1,0,15.079,13.348,13.348,0,0,1-5.1,5.168A14.512,14.512,0,0,1,903.352,589.81Zm418.665-.455h-9.62v-28.21h9.62a18.616,18.616,0,0,1,6.135.951,13.343,13.343,0,0,1,4.754,2.852,12.236,12.236,0,0,1,3.046,4.477,17.214,17.214,0,0,1,0,11.651,12.239,12.239,0,0,1-3.046,4.477,13.332,13.332,0,0,1-4.754,2.852A18.616,18.616,0,0,1,1322.017,589.355Zm-614.444-9.1h-14.43l7.215-17.42,7.215,17.419Zm377.844-3.38h-8.579V561.08h8.579c3.148,0,5.576.689,7.216,2.048a7.238,7.238,0,0,1,2.471,5.882,7.16,7.16,0,0,1-2.471,5.818C1090.994,576.186,1088.566,576.875,1085.417,576.875ZM975.5,571.155H965.037V560.43H975.5a10.813,10.813,0,0,1,5.914,1.333,4.491,4.491,0,0,1,2.015,4,4.572,4.572,0,0,1-2.015,4.03A10.612,10.612,0,0,1,975.5,571.155ZM675.69,521.07H663.405V509.825H675.69c2.782,0,4.9.476,6.288,1.414a4.8,4.8,0,0,1,2.1,4.242,4.693,4.693,0,0,1-2.112,4.225A11.722,11.722,0,0,1,675.69,521.07Zm49.01-.26a14.506,14.506,0,0,1-7.281-1.853,13.355,13.355,0,0,1-5.1-5.167,16.274,16.274,0,0,1,0-15.08,13.355,13.355,0,0,1,5.1-5.167,15.228,15.228,0,0,1,14.56,0,13.361,13.361,0,0,1,5.1,5.167,16.276,16.276,0,0,1,0,15.08,13.361,13.361,0,0,1-5.1,5.167A14.5,14.5,0,0,1,724.7,520.81Zm156.715-.456h-9.62v-28.21h9.62a18.613,18.613,0,0,1,6.134.95,13.333,13.333,0,0,1,4.753,2.852,12.238,12.238,0,0,1,3.047,4.476,17.213,17.213,0,0,1,0,11.652,12.238,12.238,0,0,1-3.047,4.476,13.333,13.333,0,0,1-4.753,2.852A18.614,18.614,0,0,1,881.415,520.355Zm281.9-9.1h-14.43l7.215-17.42,7.215,17.418Zm-222.365,0h-14.43l7.215-17.42,7.215,17.418Zm264.614-3.315h-8.579V492.08h8.579c3.149,0,5.577.689,7.216,2.047a8.2,8.2,0,0,1,0,11.732C1211.145,507.24,1208.718,507.94,1205.57,507.94Zm-222.364,0h-8.58V492.08h8.58c3.148,0,5.576.689,7.215,2.047a8.2,8.2,0,0,1,0,11.732C988.78,507.24,986.353,507.94,983.205,507.94ZM673.87,502.155H663.405V491.43H673.87a10.82,10.82,0,0,1,5.915,1.333,4.492,4.492,0,0,1,2.015,4,4.572,4.572,0,0,1-2.015,4.029A10.617,10.617,0,0,1,673.87,502.155Z"
          transform="translate(0)"
          fill="#f9fafc"
        ></path>
      </svg>